<?xml version="1.0" standalone="no"?><!DOCTYPE svg PUBLIC "-//W3C//DTD SVG 1.1//EN" "http://www.w3.org/Graphics/SVG/1.1/DTD/svg11.dtd"><svg t="1545575138604" class="icon" style="" viewBox="0 0 1024 1024" version="1.1" xmlns="http://www.w3.org/2000/svg" p-id="2435" xmlns:xlink="http://www.w3.org/1999/xlink" width="128" height="128"><defs><style type="text/css"></style></defs><path d="M512 384m-192 0a192 192 0 1 0 384 0 192 192 0 1 0-384 0Z" fill="#515151" p-id="2436"></path><path d="M512 592.64a320 320 0 0 0-320 320h640a320 320 0 0 0-320-320z" fill="#515151" p-id="2437"></path><path d="M890.88 128a5.12 5.12 0 0 1 5.12 5.12v757.76a5.12 5.12 0 0 1-5.12 5.12H133.12a5.12 5.12 0 0 1-5.12-5.12V133.12A5.12 5.12 0 0 1 133.12 128h757.76m0-64H133.12A69.12 69.12 0 0 0 64 133.12v757.76A69.12 69.12 0 0 0 133.12 960h757.76A69.12 69.12 0 0 0 960 890.88V133.12A69.12 69.12 0 0 0 890.88 64z" fill="#515151" p-id="2438"></path></svg>